<svg width="128" height="128" fill="none" xmlns="http://www.w3.org/2000/svg"><path fill-rule="evenodd" clip-rule="evenodd" d="M54.55 41.84c0 1.866 1.496 3.388 3.337 3.388 1.843 0 3.337-1.522 3.337-3.388 0-1.876-1.494-3.393-3.337-3.393-1.841 0-3.336 1.518-3.336 3.393Zm3.337 1.734a1.722 1.722 0 0 0 1.71-1.733 1.73 1.73 0 0 0-.497-1.227 1.71 1.71 0 0 0-1.213-.511c-.94 0-1.706.773-1.706 1.737 0 .955.766 1.734 1.706 1.734ZM71.287 45.228c-1.847 0-3.344-1.522-3.344-3.388 0-1.875 1.498-3.393 3.344-3.393 1.844 0 3.338 1.517 3.338 3.393 0 1.866-1.494 3.388-3.338 3.388Zm0-1.654a1.721 1.721 0 0 1-1.707-1.733c0-.965.764-1.738 1.707-1.738.95.004 1.718.782 1.715 1.737a1.73 1.73 0 0 1-1.715 1.734Z" fill="#fff"/><path fill-rule="evenodd" clip-rule="evenodd" d="M128 64c0 35.346-28.654 64-64 64-35.346 0-64-28.654-64-64C0 28.654 28.654 0 64 0c35.346 0 64 28.654 64 64ZM79.818 20.627c-3.266-3.495-8.758-5.794-14.972-5.794-6.226 0-11.729 2.308-14.99 5.814l-1.572-2.277c3.807-3.827 9.809-6.294 16.562-6.294 6.742 0 12.737 2.46 16.543 6.277l-1.571 2.274Zm-14.802-.187c3.916 0 7.567 1.15 10.282 3.235a12.07 12.07 0 0 1 1.489 1.349l1.583-2.297c-3.083-3.067-7.917-5.043-13.353-5.043-5.567 0-10.503 2.071-13.573 5.267l1.592 2.308a11.7 11.7 0 0 1 1.698-1.584c2.716-2.085 6.367-3.235 10.282-3.235Zm8.659 9.094c-2-1.951-5.246-3.247-8.828-3.247-3.595 0-6.851 1.305-8.85 3.267l-1.58-2.291c2.498-2.283 6.243-3.733 10.43-3.733 4.175 0 7.911 1.444 10.409 3.715l-1.581 2.289ZM45.402 87.356V68.962h2.66v38.773l-1.773.989v3.176h17.448v-3.176l-1.773-.991-.003-11.897h5.026v11.935l-1.921.953v3.176h17.298v-3.176l-1.479-.991v-38.62h2.513v18.243c-.862 1.2-1.435 2.368-1.435 3.822a5.945 5.945 0 0 0 2.074 4.524l1.578-1.603a3.656 3.656 0 0 1-1.432-2.913c0-2.011 1.606-3.641 3.585-3.641 1.98 0 3.586 1.63 3.586 3.641a3.656 3.656 0 0 1-1.41 2.898l1.586 1.601a5.941 5.941 0 0 0 2.07-4.499c0-1.456-.593-2.787-1.33-3.816V58.793c-.149-1.1-1-1.983-2.079-1.983l-51.598-.007c-1.078 0-1.915.89-2.062 1.99v28.563c-.886 1.03-1.33 2.369-1.33 3.824 0 1.801.827 3.415 2.083 4.499l1.576-1.601a3.658 3.658 0 0 1-1.412-2.898c0-2.012 1.604-3.643 3.583-3.643 1.98 0 3.584 1.631 3.584 3.642a3.653 3.653 0 0 1-1.432 2.912l1.58 1.602a5.935 5.935 0 0 0 2.072-4.519c0-1.453-.543-2.617-1.433-3.818Zm32.273-54.874h-26.22c-1.074 0-1.913.9-1.913 1.996v17.367c0 1.09.839 1.955 1.914 1.955h26.219c1.079 0 2.028-.865 2.028-1.955V34.478c0-1.097-.95-1.996-2.028-1.996Z" fill="#fff"/></svg>