<svg width="128" height="128" fill="none" xmlns="http://www.w3.org/2000/svg"><path d="M63.92 127.838c35.3 0 63.918-28.617 63.918-63.919C127.838 28.618 99.221 0 63.919 0 28.618 0 0 28.618 0 63.92c0 35.3 28.618 63.918 63.92 63.918Z" fill="#E03131"/><path fill-rule="evenodd" clip-rule="evenodd" d="M64.764 14.813c6.206 0 11.692 2.297 14.953 5.788l1.57-2.272c-3.802-3.812-9.79-6.27-16.523-6.27-6.744 0-12.739 2.466-16.54 6.287l1.568 2.275c3.258-3.502 8.754-5.807 14.972-5.807Zm10.44 8.832c-2.712-2.084-6.36-3.231-10.27-3.231h.001c-3.91 0-7.558 1.147-10.27 3.23-.616.47-1.184 1-1.696 1.583l-1.59-2.306c3.066-3.191 7.995-5.26 13.556-5.26 5.429 0 10.257 1.973 13.336 5.037l-1.581 2.294a12.06 12.06 0 0 0-1.487-1.348Zm-10.44 2.608c3.58 0 6.82 1.295 8.818 3.243l1.579-2.286c-2.495-2.269-6.227-3.71-10.396-3.71-4.181 0-7.922 1.448-10.417 3.727l1.578 2.29c1.996-1.96 5.248-3.264 8.839-3.264Zm-19.42 42.621v18.37c.89 1.2 1.431 2.363 1.431 3.815 0 1.808-.805 3.43-2.07 4.512l-1.576-1.6a3.649 3.649 0 0 0 1.43-2.908c0-2.008-1.603-3.637-3.58-3.637-1.976 0-3.578 1.629-3.578 3.638a3.653 3.653 0 0 0 1.41 2.894l-1.575 1.6c-1.254-1.083-2.08-2.695-2.08-4.494 0-1.453.444-2.79 1.328-3.82V58.719c.148-1.099.984-1.987 2.06-1.987l51.533.006c1.078 0 1.928.882 2.076 1.981v28.54c.737 1.029 1.329 2.359 1.329 3.813a5.933 5.933 0 0 1-2.068 4.493l-1.583-1.6a3.65 3.65 0 0 0 1.407-2.894c0-2.008-1.604-3.636-3.581-3.636-1.976 0-3.58 1.628-3.58 3.636 0 1.19.561 2.246 1.43 2.91l-1.577 1.6a5.938 5.938 0 0 1-2.07-4.518c0-1.452.572-2.618 1.433-3.817v-18.22h-2.51v38.571l1.477.99v3.172H64.984v-3.172l1.918-.952v-11.92h-5.02l.004 11.882 1.77.99v3.172H46.23v-3.172l1.772-.987V68.874h-2.658Zm6.046-36.433h26.186c1.078 0 2.026.898 2.026 1.993v17.345c0 1.089-.948 1.953-2.026 1.953H51.391c-1.074 0-1.911-.864-1.911-1.953V34.434c0-1.095.837-1.993 1.91-1.993Zm6.424 12.73c-1.839 0-3.332-1.52-3.332-3.385 0-1.872 1.493-3.388 3.332-3.388 1.84 0 3.333 1.515 3.333 3.388 0 1.864-1.493 3.384-3.333 3.384Zm10.044-3.385c0 1.864 1.494 3.385 3.34 3.385v-.001c1.841 0 3.333-1.52 3.333-3.384 0-1.873-1.492-3.388-3.334-3.388-1.844 0-3.34 1.516-3.34 3.388Zm-8.337.001a1.72 1.72 0 0 1-1.707 1.731c-.939 0-1.704-.778-1.704-1.73 0-.964.766-1.736 1.704-1.736.455.001.891.185 1.212.51.32.326.498.767.495 1.225Zm9.971 0a1.72 1.72 0 0 0 1.706 1.731 1.727 1.727 0 0 0 1.712-1.73 1.725 1.725 0 0 0-1.712-1.736c-.943 0-1.706.772-1.706 1.735Z" fill="#fff"/></svg>