<svg width="278" height="67" fill="none" xmlns="http://www.w3.org/2000/svg"><path d="M117.919 45.337h-4.613V34.451c0-2.035-.326-3.517-.978-4.44-.652-.926-1.756-1.387-3.307-1.387-1.85 0-3.279.664-4.287 1.997v14.716h-4.611V14.762h4.613v11.742c1.419-1.194 2.997-1.793 4.735-1.793 5.637 0 8.452 3.249 8.452 9.744V45.34l-.004-.004Zm3.302-10.108c0-1.47.241-2.848.717-4.14.475-1.292 1.156-2.405 2.042-3.344.882-.937 1.955-1.678 3.221-2.222 1.265-.541 2.674-.814 4.225-.814 1.553 0 2.953.273 4.205.816 1.252.546 2.32 1.292 3.206 2.247a10.255 10.255 0 0 1 2.059 3.34c.491 1.277.734 2.65.734 4.119 0 1.466-.238 2.841-.713 4.116a10.021 10.021 0 0 1-2.042 3.34c-.882.953-1.959 1.7-3.225 2.243-1.265.543-2.674.816-4.226.816-1.577 0-2.991-.273-4.244-.816a9.602 9.602 0 0 1-3.202-2.221c-.888-.937-1.569-2.045-2.044-3.322-.476-1.277-.715-2.663-.715-4.157l.002-.001Zm4.735 0c0 2.035.485 3.653 1.452 4.85.966 1.197 2.306 1.794 4.02 1.794 1.716 0 3.056-.595 4.023-1.793.964-1.194 1.447-2.81 1.447-4.848s-.483-3.647-1.447-4.832c-.967-1.18-2.307-1.772-4.023-1.772-1.714 0-3.054.591-4.02 1.772-.967 1.183-1.45 2.794-1.45 4.832l-.002-.003Zm36.534 10.108h-4.246l-.202-1.507c-1.361 1.277-2.981 1.916-4.858 1.916-5.495 0-8.245-3.168-8.245-9.5v-11.17h4.613V35.92c0 2.039.342 3.527 1.02 4.465.681.941 1.757 1.408 3.225 1.408 1.797 0 3.158-.624 4.084-1.876V25.076h4.611v20.261h-.002Zm12.599 10.195c-1.58 0-2.966-.165-4.165-.492-1.198-.326-2.191-.768-2.979-1.324-.79-.557-1.388-1.197-1.796-1.916a4.592 4.592 0 0 1-.614-2.304c0-1.984 1.145-3.495 3.432-4.526-1.281-.71-1.921-1.645-1.921-2.814 0-1.223.709-2.174 2.124-2.853-2.147-1.498-3.225-3.683-3.225-6.566 0-1.139.192-2.208.575-3.197a7.13 7.13 0 0 1 1.63-2.55c.71-.706 1.572-1.263 2.592-1.67 1.02-.407 2.171-.614 3.451-.614 1.822 0 3.413.437 4.775 1.305 1.307-.653 2.818-.98 4.532-.98h1.02l-.364 2.977h-1.553c-.464 0-.982.042-1.553.125.953 1.33 1.428 2.853 1.428 4.565a8.567 8.567 0 0 1-.552 3.078 7.397 7.397 0 0 1-1.611 2.55c-.709.733-1.572 1.31-2.594 1.733-1.022.422-2.172.634-3.451.634-.843 0-1.633-.083-2.368-.246-.408.217-.613.49-.613.816 0 .244.09.45.268.61.173.164.468.313.876.45.409.134.959.263 1.653.384.694.124 1.572.253 2.634.387.898.135 1.822.313 2.775.532a9.966 9.966 0 0 1 2.613.976 5.97 5.97 0 0 1 1.96 1.712c.517.707.805 1.617.857 2.73 0 1.959-.857 3.527-2.57 4.71-1.718 1.183-4.141 1.774-7.266 1.774v.004Zm-.901-27.317c-1.304 0-2.305.41-2.999 1.223-.694.814-1.041 1.914-1.041 3.302 0 1.383.353 2.487 1.06 3.303.71.814 1.714 1.22 3.022 1.22 1.304 0 2.304-.414 2.997-1.241.694-.832 1.043-1.94 1.043-3.326 0-1.386-.355-2.48-1.063-3.283-.709-.8-1.714-1.202-3.021-1.202l.002.004Zm1.104 18.305-2.818-.407c-.869.268-1.576.664-2.121 1.18-.544.515-.817 1.127-.817 1.834 0 .921.48 1.664 1.429 2.221.953.557 2.287.837 4.001.837 1.714 0 3.095-.272 4.141-.816 1.049-.543 1.573-1.248 1.573-2.12 0-.79-.46-1.382-1.387-1.775-.928-.394-2.262-.71-4.003-.96l.002.006Zm56.882-.774c-2.093 0-3.892-.666-5.387-1.997l-.163 1.588h-4.285V14.762h4.613v11.7c1.332-1.17 3.075-1.755 5.224-1.755 1.471 0 2.805.273 4.003.816a9.18 9.18 0 0 1 3.06 2.224c.844.94 1.496 2.054 1.96 3.34.464 1.294.694 2.673.694 4.142 0 1.466-.224 2.841-.671 4.116-.451 1.275-1.097 2.39-1.94 3.34a9.027 9.027 0 0 1-3.062 2.243c-1.2.543-2.546.816-4.046.816v.002Zm-.364-17.122c-1.58 0-2.818.584-3.716 1.753-.901 1.167-1.348 2.784-1.348 4.852 0 2.12.447 3.757 1.346 4.91.898 1.157 2.136 1.732 3.714 1.732 1.63 0 2.934-.614 3.898-1.854.966-1.239 1.448-2.834 1.448-4.79 0-1.959-.476-3.548-1.429-4.771-.951-1.223-2.258-1.834-3.919-1.834l.006.002Zm-27.061 16.713h-4.613V34.451c0-2.035-.326-3.517-.977-4.44-.656-.926-1.759-1.387-3.31-1.387-1.85 0-3.278.664-4.285 1.997v14.716h-4.615V14.762h4.613v11.742c1.413-1.194 2.991-1.793 4.736-1.793 5.631 0 8.447 3.249 8.447 9.744V45.34l.004-.004Zm14.144-3.383-.408 3.792h-3.509c-.901 0-1.687-.134-2.37-.409-.68-.269-1.246-.637-1.694-1.1a4.307 4.307 0 0 1-.997-1.632 6.069 6.069 0 0 1-.33-2.035V28.826h-3.062l.41-3.75h2.654v-6.023l4.613-.487v6.508h4.735v3.754H214.2v9.622c0 .845.027 1.502.082 1.978.054.474.192.822.408 1.037.217.22.556.355 1.02.408.461.058 1.103.083 1.918.083h1.265v-.002Zm25.464-6.725c0-1.47.237-2.848.715-4.14.475-1.292 1.156-2.405 2.04-3.344.888-.937 1.961-1.678 3.227-2.222 1.265-.541 2.674-.814 4.225-.814 1.553 0 2.953.273 4.205.816 1.252.546 2.32 1.292 3.202 2.247.888.948 1.572 2.064 2.065 3.34.489 1.277.734 2.65.734 4.119 0 1.466-.238 2.841-.715 4.116a9.968 9.968 0 0 1-2.04 3.34c-.882.953-1.96 1.7-3.225 2.243-1.265.543-2.673.816-4.224.816-1.578 0-2.991-.273-4.245-.816a9.645 9.645 0 0 1-3.205-2.221 9.745 9.745 0 0 1-2.038-3.322c-.48-1.277-.716-2.663-.716-4.157l-.005-.001Zm4.735 0c0 2.035.484 3.653 1.45 4.85.966 1.197 2.306 1.794 4.02 1.794 1.714 0 3.055-.595 4.021-1.793.966-1.194 1.449-2.81 1.449-4.848s-.483-3.647-1.449-4.832c-.966-1.18-2.307-1.772-4.021-1.772s-3.054.591-4.02 1.772c-.966 1.183-1.45 2.794-1.45 4.832v-.003Zm28.656 6.725-.408 3.792h-3.509c-.901 0-1.687-.134-2.37-.409-.678-.269-1.246-.637-1.693-1.1a4.317 4.317 0 0 1-.996-1.632 6.069 6.069 0 0 1-.33-2.035V28.826h-3.062l.408-3.75h2.656v-6.023l4.613-.487v6.508h4.735v3.754h-4.735v9.622c0 .845.028 1.502.084 1.978.054.474.192.822.408 1.037.217.22.556.355 1.02.408.461.058 1.101.083 1.918.083h1.265l-.004-.002Zm-180.929 0-.408 3.792h-3.509c-.9 0-1.687-.134-2.37-.409-.68-.269-1.246-.637-1.694-1.1a4.379 4.379 0 0 1-1.001-1.632 6.178 6.178 0 0 1-.326-2.035V28.826h-3.064l.41-3.75h2.654v-6.023l4.613-.487v6.508h4.736v3.754h-4.736v9.622c0 .845.027 1.502.082 1.978.054.474.192.822.409 1.037.216.22.556.355 1.02.408.46.058 1.102.083 1.917.083h1.265" fill="#fff"/><path fill-rule="evenodd" clip-rule="evenodd" d="M28.464 21.832c0 .974.78 1.768 1.741 1.768.962 0 1.742-.794 1.742-1.768 0-.979-.78-1.77-1.742-1.77-.96 0-1.74.792-1.74 1.77Zm1.741.905a.899.899 0 0 0 .892-.905.903.903 0 0 0-.259-.64.892.892 0 0 0-.633-.266c-.49 0-.89.403-.89.906a.9.9 0 0 0 .89.905ZM37.198 23.6c-.964 0-1.745-.794-1.745-1.768 0-.978.78-1.77 1.745-1.77.962 0 1.741.791 1.741 1.77 0 .974-.78 1.768-1.741 1.768Zm0-.863a.898.898 0 0 1-.891-.905c0-.503.398-.906.89-.906a.901.901 0 0 1 .895.906c0 .498-.4.902-.894.905Z" fill="#fff"/><path fill-rule="evenodd" clip-rule="evenodd" d="M66.79 33.395c0 18.444-14.951 33.395-33.395 33.395C14.951 66.79 0 51.838 0 33.395 0 14.951 14.951 0 33.395 0 51.839 0 66.79 14.951 66.79 33.395ZM41.649 10.763c-1.704-1.824-4.57-3.023-7.812-3.023-3.25 0-6.12 1.204-7.823 3.034l-.82-1.189c1.987-1.996 5.119-3.284 8.643-3.284 3.517 0 6.645 1.284 8.632 3.275l-.82 1.187Zm-7.724-.097c2.044 0 3.949.6 5.365 1.688.288.221.548.456.777.703l.826-1.198c-1.608-1.6-4.131-2.632-6.967-2.632-2.905 0-5.48 1.081-7.083 2.749l.831 1.204c.268-.304.564-.581.886-.826 1.417-1.089 3.322-1.688 5.365-1.688Zm4.518 4.745c-1.043-1.018-2.737-1.695-4.606-1.695-1.876 0-3.575.681-4.618 1.705l-.824-1.195c1.303-1.191 3.257-1.948 5.442-1.948 2.178 0 4.128.753 5.431 1.939l-.825 1.194ZM23.69 45.58v-9.597h1.389v20.232l-.926.516v1.657h9.105v-1.657l-.925-.517-.002-6.208h2.623v6.227l-1.003.498v1.657h9.026v-1.657l-.771-.517V36.063h1.311v9.519c-.45.627-.749 1.236-.749 1.994a3.102 3.102 0 0 0 1.082 2.36l.823-.835a1.908 1.908 0 0 1-.746-1.52c0-1.05.837-1.9 1.87-1.9 1.033 0 1.871.85 1.871 1.9.002.591-.27 1.15-.735 1.512l.827.835a3.1 3.1 0 0 0 1.08-2.347c0-.76-.31-1.455-.694-1.992V30.678c-.077-.574-.522-1.035-1.084-1.035l-26.924-.003c-.563 0-1 .464-1.077 1.038v14.904c-.462.537-.694 1.236-.694 1.995 0 .94.432 1.783 1.087 2.348l.823-.836a1.909 1.909 0 0 1-.737-1.512c0-1.05.837-1.9 1.87-1.9 1.033 0 1.87.85 1.87 1.9a1.907 1.907 0 0 1-.747 1.52l.824.835a3.097 3.097 0 0 0 1.081-2.358c0-.758-.283-1.365-.748-1.992ZM40.53 16.95H26.85c-.562 0-1 .47-1 1.041v9.063a1 1 0 0 0 1 1.02h13.68c.563 0 1.059-.451 1.059-1.02V17.99c0-.572-.496-1.04-1.059-1.04Z" fill="#fff"/></svg>