<svg width="278" height="67" fill="none" xmlns="http://www.w3.org/2000/svg"><path d="M117.919 45.337h-4.613V34.451c0-2.035-.326-3.517-.978-4.44-.652-.926-1.756-1.387-3.307-1.387-1.85 0-3.279.664-4.287 1.997v14.716h-4.611V14.762h4.613v11.742c1.418-1.194 2.996-1.793 4.735-1.793 5.637 0 8.452 3.249 8.452 9.744V45.34l-.004-.004Zm3.302-10.108c0-1.47.241-2.848.717-4.14.475-1.292 1.156-2.405 2.042-3.344.881-.937 1.955-1.678 3.221-2.222 1.265-.541 2.674-.814 4.225-.814 1.553 0 2.953.273 4.205.816a9.474 9.474 0 0 1 3.206 2.247 10.255 10.255 0 0 1 2.059 3.34c.491 1.277.734 2.65.734 4.119 0 1.466-.238 2.841-.713 4.116a10.022 10.022 0 0 1-2.042 3.34c-.882.953-1.96 1.7-3.225 2.243-1.265.543-2.675.816-4.226.816-1.578 0-2.991-.273-4.245-.816a9.596 9.596 0 0 1-3.201-2.221c-.888-.937-1.569-2.045-2.044-3.322-.476-1.276-.715-2.663-.715-4.156l.002-.002Zm4.735 0c0 2.035.485 3.653 1.452 4.85.966 1.197 2.306 1.794 4.02 1.794 1.716 0 3.056-.595 4.023-1.793.964-1.194 1.447-2.81 1.447-4.847 0-2.04-.483-3.648-1.447-4.833-.967-1.18-2.307-1.772-4.023-1.772-1.714 0-3.054.591-4.02 1.772-.967 1.183-1.45 2.794-1.45 4.833l-.002-.004Zm36.534 10.108h-4.247l-.201-1.507c-1.361 1.277-2.981 1.916-4.858 1.916-5.495 0-8.245-3.168-8.245-9.5v-11.17h4.613V35.92c0 2.039.342 3.527 1.02 4.466.681.94 1.757 1.407 3.225 1.407 1.797 0 3.158-.624 4.084-1.876v-14.84h4.611v20.26h-.002Zm12.599 10.195c-1.58 0-2.966-.165-4.165-.492-1.198-.326-2.191-.768-2.979-1.324-.79-.557-1.388-1.197-1.797-1.916a4.6 4.6 0 0 1-.613-2.304c0-1.984 1.145-3.495 3.432-4.526-1.281-.71-1.921-1.645-1.921-2.814 0-1.223.709-2.174 2.124-2.853-2.147-1.498-3.225-3.683-3.225-6.566 0-1.139.192-2.208.575-3.197a7.13 7.13 0 0 1 1.63-2.55c.709-.706 1.572-1.263 2.592-1.67 1.02-.407 2.171-.614 3.451-.614 1.822 0 3.413.437 4.774 1.305 1.308-.653 2.819-.98 4.533-.98h1.02l-.364 2.977h-1.553c-.464 0-.982.042-1.553.125.952 1.33 1.428 2.853 1.428 4.565a8.566 8.566 0 0 1-.552 3.078 7.397 7.397 0 0 1-1.611 2.55c-.709.733-1.572 1.31-2.594 1.733-1.022.423-2.172.634-3.451.634-.844 0-1.633-.083-2.368-.246-.408.217-.613.49-.613.816 0 .244.09.45.268.61.173.164.468.314.876.45.409.134.959.263 1.653.384.694.125 1.572.253 2.634.388.898.134 1.822.313 2.775.531a9.966 9.966 0 0 1 2.613.976 5.958 5.958 0 0 1 1.959 1.712c.518.707.806 1.617.857 2.73 0 1.959-.857 3.527-2.569 4.71-1.718 1.183-4.141 1.774-7.266 1.774v.004Zm-.901-27.317c-1.304 0-2.305.41-2.999 1.223-.694.814-1.041 1.914-1.041 3.302 0 1.383.353 2.487 1.06 3.303.71.814 1.714 1.22 3.022 1.22 1.304 0 2.304-.414 2.997-1.241.694-.832 1.043-1.94 1.043-3.326 0-1.386-.355-2.48-1.063-3.283-.709-.8-1.714-1.202-3.021-1.202l.002.004Zm1.104 18.305-2.818-.407c-.869.269-1.576.664-2.121 1.18-.544.515-.817 1.127-.817 1.834 0 .922.48 1.665 1.429 2.221.953.557 2.287.837 4.001.837 1.714 0 3.095-.272 4.141-.816 1.049-.543 1.573-1.248 1.573-2.12 0-.79-.461-1.382-1.387-1.775-.928-.394-2.262-.71-4.003-.96l.002.006Zm56.882-.774c-2.094 0-3.892-.666-5.387-1.997l-.163 1.588h-4.286V14.762h4.613v11.7c1.333-1.17 3.076-1.755 5.225-1.755 1.471 0 2.805.273 4.003.816a9.183 9.183 0 0 1 3.06 2.224c.844.94 1.496 2.054 1.96 3.34.464 1.294.694 2.673.694 4.142 0 1.467-.224 2.841-.671 4.116-.451 1.275-1.097 2.39-1.94 3.34a9.026 9.026 0 0 1-3.062 2.243c-1.201.544-2.547.816-4.046.816v.002Zm-.364-17.122c-1.58 0-2.819.584-3.716 1.753-.901 1.167-1.348 2.784-1.348 4.852 0 2.12.447 3.757 1.346 4.91.898 1.157 2.136 1.733 3.714 1.733 1.63 0 2.934-.615 3.898-1.855.966-1.238 1.447-2.834 1.447-4.79 0-1.959-.475-3.548-1.428-4.771-.951-1.223-2.259-1.834-3.919-1.834l.006.002Zm-27.061 16.713h-4.613V34.451c0-2.035-.326-3.517-.978-4.44-.655-.926-1.758-1.387-3.309-1.387-1.85 0-3.278.664-4.285 1.997v14.716h-4.615V14.762h4.613v11.742c1.413-1.194 2.991-1.793 4.736-1.793 5.631 0 8.447 3.249 8.447 9.744V45.34l.004-.004Zm14.144-3.383-.408 3.792h-3.509c-.901 0-1.687-.134-2.37-.409-.68-.269-1.246-.637-1.695-1.1a4.331 4.331 0 0 1-.997-1.632 6.093 6.093 0 0 1-.329-2.035V28.826h-3.062l.41-3.75h2.654v-6.023l4.613-.487v6.508h4.735v3.754H214.2v9.622c0 .845.026 1.502.082 1.978.054.474.192.822.408 1.037.217.22.556.355 1.02.408.461.058 1.103.083 1.918.083h1.265v-.002Zm25.464-6.725c0-1.47.237-2.848.715-4.14.475-1.292 1.156-2.405 2.04-3.344.887-.937 1.961-1.678 3.227-2.222 1.265-.541 2.674-.814 4.225-.814 1.553 0 2.953.273 4.205.816 1.252.546 2.32 1.293 3.202 2.247.887.948 1.572 2.064 2.065 3.34.489 1.277.734 2.65.734 4.119 0 1.466-.238 2.841-.715 4.116a9.969 9.969 0 0 1-2.04 3.34c-.882.953-1.96 1.7-3.225 2.243-1.265.543-2.673.816-4.224.816-1.578 0-2.991-.273-4.245-.816a9.643 9.643 0 0 1-3.205-2.221 9.744 9.744 0 0 1-2.038-3.322c-.48-1.276-.716-2.663-.716-4.156l-.005-.002Zm4.735 0c0 2.035.483 3.653 1.45 4.85.966 1.197 2.306 1.794 4.02 1.794 1.714 0 3.055-.595 4.021-1.793.966-1.194 1.449-2.81 1.449-4.847 0-2.04-.483-3.648-1.449-4.833-.966-1.18-2.307-1.772-4.021-1.772s-3.054.591-4.02 1.772c-.967 1.183-1.45 2.794-1.45 4.833v-.004Zm28.656 6.725-.408 3.792h-3.509c-.901 0-1.687-.134-2.37-.409-.678-.269-1.246-.637-1.693-1.1a4.331 4.331 0 0 1-.997-1.632 6.093 6.093 0 0 1-.329-2.035V28.826h-3.062l.408-3.75h2.656v-6.023l4.613-.487v6.508h4.735v3.754h-4.735v9.622c0 .845.028 1.502.084 1.978.054.474.192.822.408 1.037.217.22.556.355 1.02.408.46.058 1.101.083 1.918.083h1.265l-.004-.002Zm-180.929 0-.408 3.792h-3.509c-.901 0-1.687-.134-2.37-.409-.68-.269-1.246-.637-1.694-1.1a4.377 4.377 0 0 1-1.001-1.632 6.178 6.178 0 0 1-.326-2.035V28.826h-3.064l.41-3.75h2.654v-6.023l4.613-.487v6.508h4.735v3.754h-4.735v9.622c0 .845.027 1.502.082 1.978.054.474.192.822.409 1.037.216.22.556.355 1.02.408.46.058 1.102.083 1.917.083h1.265M33.395 66.79c18.444 0 33.395-14.951 33.395-33.395C66.79 14.951 51.838 0 33.395 0 14.951 0 0 14.951 0 33.395 0 51.839 14.951 66.79 33.395 66.79Z" fill="#E03131"/><path fill-rule="evenodd" clip-rule="evenodd" d="M33.837 7.74c3.242 0 6.108 1.2 7.812 3.023l.82-1.187c-1.986-1.991-5.114-3.275-8.632-3.275-3.524 0-6.656 1.287-8.642 3.284l.82 1.188c1.702-1.83 4.573-3.034 7.822-3.034Zm5.453 4.613c-1.416-1.088-3.322-1.688-5.365-1.688-2.042 0-3.948.6-5.365 1.688a6.115 6.115 0 0 0-.886.827l-.83-1.205c1.601-1.667 4.176-2.748 7.082-2.748 2.836 0 5.359 1.031 6.967 2.631l-.826 1.2a6.301 6.301 0 0 0-.777-.705Zm-5.453 1.363c1.87 0 3.563.677 4.606 1.694l.825-1.194c-1.303-1.185-3.253-1.938-5.431-1.938-2.185 0-4.139.756-5.442 1.947l.824 1.196c1.043-1.024 2.742-1.705 4.618-1.705ZM23.69 35.984v9.598c.465.626.748 1.234.748 1.992 0 .945-.42 1.793-1.081 2.358l-.824-.836c.472-.36.749-.923.747-1.52 0-1.049-.837-1.9-1.87-1.9-1.033 0-1.87.851-1.87 1.9 0 .593.271 1.152.737 1.513l-.823.836a3.106 3.106 0 0 1-1.087-2.348c0-.76.232-1.458.694-1.995V30.678c.078-.574.514-1.039 1.077-1.039l26.924.004c.563 0 1.007.46 1.084 1.035v14.911c.385.537.694 1.232.694 1.991a3.1 3.1 0 0 1-1.08 2.348l-.827-.835c.465-.362.737-.921.735-1.513 0-1.049-.838-1.9-1.871-1.9s-1.87.85-1.87 1.9c0 .622.293 1.174.746 1.52l-.823.837a3.102 3.102 0 0 1-1.082-2.36c0-.76.3-1.369.75-1.995v-9.52h-1.312v20.153l.771.517v1.657h-9.026v-1.657l1.003-.498v-6.227H32.33l.002 6.208.925.517v1.657h-9.105v-1.657l.926-.516V35.984H23.69Zm3.16-19.035h13.68c.563 0 1.059.47 1.059 1.041v9.063c0 .568-.496 1.02-1.059 1.02H26.85a1 1 0 0 1-1-1.02V17.99c0-.572.438-1.041 1-1.041Zm3.355 6.65c-.96 0-1.74-.794-1.74-1.767 0-.979.78-1.77 1.74-1.77.962 0 1.741.791 1.741 1.77 0 .973-.78 1.767-1.741 1.767Zm5.248-1.767c0 .973.78 1.768 1.745 1.768.962 0 1.741-.795 1.741-1.768 0-.979-.78-1.77-1.741-1.77-.964 0-1.745.791-1.745 1.77Zm-4.356 0a.899.899 0 0 1-.892.904.9.9 0 0 1-.89-.904c0-.503.4-.907.89-.907.238.001.466.097.633.267.168.17.26.4.26.64Zm5.21 0a.898.898 0 0 0 .89.904.903.903 0 0 0 .895-.904.901.901 0 0 0-.894-.907.897.897 0 0 0-.891.907Z" fill="#fff"/></svg>