<svg width="143" height="139" fill="none" xmlns="http://www.w3.org/2000/svg"><path d="M24.756 131.229h-3.412v-8.051c0-1.505-.24-2.601-.723-3.284-.482-.685-1.299-1.026-2.446-1.026-1.368 0-2.425.492-3.17 1.477v10.884h-3.411v-22.613h3.412v8.685c1.05-.884 2.216-1.327 3.502-1.327 4.17 0 6.251 2.403 6.251 7.207v8.051l-.003-.003Zm2.442-7.476c0-1.086.179-2.106.53-3.061a7.152 7.152 0 0 1 1.51-2.474 7.042 7.042 0 0 1 2.383-1.643c.936-.4 1.978-.602 3.125-.602 1.149 0 2.184.202 3.11.603a7.013 7.013 0 0 1 2.371 1.662 7.572 7.572 0 0 1 1.523 2.471c.363.944.543 1.959.543 3.046a8.65 8.65 0 0 1-.527 3.044 7.418 7.418 0 0 1-1.51 2.471 6.938 6.938 0 0 1-2.386 1.658c-.936.402-1.978.604-3.125.604-1.167 0-2.212-.202-3.14-.604a7.095 7.095 0 0 1-2.368-1.643 7.158 7.158 0 0 1-1.511-2.456c-.352-.944-.53-1.97-.53-3.074l.002-.002Zm3.503 0c0 1.505.358 2.702 1.073 3.587.715.886 1.706 1.328 2.974 1.328 1.269 0 2.26-.441 2.975-1.327.713-.883 1.07-2.078 1.07-3.585 0-1.508-.357-2.698-1.07-3.574-.715-.873-1.706-1.311-2.975-1.311-1.268 0-2.26.438-2.974 1.311-.715.875-1.072 2.066-1.072 3.574l-.001-.003Zm27.02 7.476h-3.14l-.15-1.114c-1.006.944-2.204 1.417-3.593 1.417-4.064 0-6.097-2.343-6.097-7.026v-8.262h3.412v8.02c0 1.508.252 2.609.754 3.303.503.696 1.299 1.041 2.385 1.041 1.329 0 2.336-.461 3.02-1.387v-10.977h3.411v14.985h-.001Zm9.319 7.541c-1.169 0-2.194-.123-3.08-.364-.887-.241-1.621-.568-2.204-.98-.584-.412-1.027-.884-1.329-1.417a3.397 3.397 0 0 1-.454-1.704c0-1.467.847-2.584 2.539-3.347-.947-.525-1.421-1.217-1.421-2.082 0-.904.524-1.607 1.571-2.11-1.588-1.107-2.385-2.723-2.385-4.856 0-.842.142-1.633.425-2.364.28-.734.681-1.364 1.206-1.886a5.63 5.63 0 0 1 1.917-1.235c.754-.302 1.605-.455 2.552-.455 1.348 0 2.524.324 3.531.966.967-.483 2.085-.724 3.352-.724h.755l-.27 2.201h-1.148c-.343 0-.726.031-1.149.092.705.984 1.057 2.11 1.057 3.377 0 .803-.136 1.562-.409 2.276a5.49 5.49 0 0 1-1.19 1.886 5.624 5.624 0 0 1-1.92 1.282c-.755.312-1.606.468-2.552.468a8.111 8.111 0 0 1-1.751-.181c-.302.16-.454.362-.454.603 0 .18.067.332.198.452.128.12.346.231.648.332a9 9 0 0 0 1.223.284c.513.092 1.163.187 1.948.287.664.099 1.347.231 2.052.393a7.368 7.368 0 0 1 1.933.722 4.412 4.412 0 0 1 1.45 1.266c.382.523.595 1.196.633 2.019 0 1.449-.634 2.609-1.9 3.484-1.27.874-3.063 1.312-5.374 1.312v.003Zm-.667-20.204c-.964 0-1.704.302-2.218.904-.513.602-.77 1.416-.77 2.443 0 1.022.261 1.839.784 2.442.525.602 1.268.903 2.235.903.965 0 1.705-.306 2.217-.918.513-.615.771-1.435.771-2.46s-.262-1.835-.785-2.428c-.525-.592-1.268-.889-2.235-.889l.001.003Zm.817 13.538-2.085-.301c-.642.199-1.165.491-1.568.873-.403.381-.604.834-.604 1.356 0 .682.354 1.232 1.056 1.643.705.412 1.692.619 2.96.619 1.267 0 2.288-.201 3.063-.603.775-.402 1.163-.923 1.163-1.568 0-.585-.34-1.022-1.026-1.313-.686-.291-1.673-.526-2.96-.71v.004Zm42.07-.572c-1.548 0-2.878-.493-3.984-1.477l-.121 1.174h-3.169v-22.613h3.412v8.653c.985-.866 2.274-1.297 3.864-1.297 1.087 0 2.074.201 2.961.603a6.793 6.793 0 0 1 2.263 1.644c.624.696 1.106 1.52 1.449 2.471.343.957.514 1.977.514 3.063a9.139 9.139 0 0 1-.497 3.045 7.386 7.386 0 0 1-1.435 2.47 6.67 6.67 0 0 1-2.264 1.659c-.888.402-1.884.603-2.993.603v.002Zm-.269-12.664c-1.168 0-2.085.432-2.748 1.297-.667.863-.997 2.059-.997 3.588 0 1.568.33 2.779.995 3.632.664.855 1.58 1.281 2.747 1.281 1.206 0 2.17-.454 2.883-1.371.715-.916 1.071-2.096 1.071-3.543 0-1.449-.352-2.624-1.057-3.529-.703-.905-1.67-1.356-2.898-1.356l.004.001Zm-20.014 12.361h-3.412v-8.051c0-1.505-.241-2.601-.723-3.284-.485-.685-1.3-1.026-2.448-1.026-1.368 0-2.425.492-3.17 1.477v10.884h-3.412v-22.613h3.411v8.685c1.046-.884 2.213-1.327 3.503-1.327 4.165 0 6.248 2.403 6.248 7.207v8.051l.003-.003Zm10.46-2.502-.301 2.805H96.54c-.667 0-1.248-.1-1.753-.303a3.51 3.51 0 0 1-1.254-.813 3.196 3.196 0 0 1-.737-1.207 4.503 4.503 0 0 1-.244-1.505v-8.687h-2.265l.304-2.773h1.962v-4.454l3.412-.361v4.814h3.503v2.776h-3.503v7.117c0 .625.02 1.11.061 1.462.04.351.142.608.302.767.16.164.412.263.755.303.34.042.815.061 1.418.061h.936v-.002Zm18.834-4.974c0-1.086.176-2.106.529-3.061a7.17 7.17 0 0 1 1.508-2.474 7.107 7.107 0 0 1 2.387-1.643c.936-.4 1.978-.602 3.125-.602 1.149 0 2.184.202 3.11.603a6.97 6.97 0 0 1 2.368 1.662 7.538 7.538 0 0 1 1.528 2.471c.361.944.543 1.959.543 3.046a8.622 8.622 0 0 1-.529 3.044 7.37 7.37 0 0 1-1.509 2.471 6.933 6.933 0 0 1-2.385 1.658c-.936.402-1.977.604-3.124.604-1.167 0-2.212-.202-3.14-.604a7.135 7.135 0 0 1-2.371-1.643 7.223 7.223 0 0 1-1.507-2.456c-.355-.944-.529-1.97-.529-3.074l-.004-.002Zm3.502 0c0 1.505.358 2.702 1.072 3.587.715.886 1.706 1.328 2.974 1.328 1.268 0 2.259-.441 2.974-1.327.714-.883 1.072-2.078 1.072-3.585 0-1.508-.358-2.698-1.072-3.574-.715-.873-1.706-1.311-2.974-1.311-1.268 0-2.259.438-2.974 1.311-.714.875-1.072 2.066-1.072 3.574v-.003Zm21.194 4.974-.302 2.805h-2.595c-.666 0-1.248-.1-1.752-.303a3.514 3.514 0 0 1-1.253-.813 3.208 3.208 0 0 1-.737-1.207 4.503 4.503 0 0 1-.244-1.505v-8.687h-2.264l.302-2.773h1.964v-4.454l3.411-.361v4.814H143v2.776h-3.503v7.117c0 .625.022 1.11.063 1.462.04.351.142.608.302.767.16.164.411.263.754.303.341.042.814.061 1.418.061h.936l-.003-.002Zm-133.816 0-.302 2.805H6.254c-.667 0-1.248-.1-1.753-.303a3.51 3.51 0 0 1-1.254-.813 3.239 3.239 0 0 1-.74-1.207 4.574 4.574 0 0 1-.241-1.505v-8.687H0l.303-2.773h1.963v-4.454l3.412-.361v4.814H9.18v2.776H5.678v7.117c0 .625.02 1.11.06 1.462.04.351.143.608.303.767.16.164.411.263.754.303.34.042.816.061 1.418.061h.936M72 92c25.405 0 46-20.595 46-46S97.405 0 72 0 26 20.595 26 46s20.595 46 46 46Z" fill="#E03131"/><path fill-rule="evenodd" clip-rule="evenodd" d="M72.609 10.66c4.466 0 8.413 1.653 10.76 4.165l1.13-1.635c-2.736-2.743-7.045-4.511-11.89-4.511-4.855 0-9.169 1.774-11.904 4.524l1.129 1.637c2.344-2.52 6.3-4.18 10.775-4.18Zm7.512 6.356c-1.952-1.5-4.576-2.325-7.39-2.325s-5.439.826-7.39 2.325c-.444.338-.853.72-1.221 1.138l-1.145-1.659c2.207-2.296 5.754-3.785 9.756-3.785 3.907 0 7.382 1.42 9.597 3.624l-1.138 1.651a8.673 8.673 0 0 0-1.07-.97Zm-7.513 1.877c2.576 0 4.908.932 6.346 2.334l1.136-1.645c-1.795-1.633-4.48-2.67-7.482-2.67-3.008 0-5.7 1.042-7.496 2.682l1.136 1.648c1.436-1.41 3.777-2.349 6.36-2.349ZM58.632 49.566v13.22c.64.864 1.03 1.7 1.03 2.745 0 1.301-.579 2.47-1.49 3.248l-1.134-1.152a2.626 2.626 0 0 0 1.03-2.093c0-1.445-1.154-2.617-2.577-2.617-1.422 0-2.575 1.172-2.575 2.618a2.63 2.63 0 0 0 1.015 2.083l-1.133 1.15a4.279 4.279 0 0 1-1.498-3.233c0-1.046.32-2.009.956-2.749v-20.53c.106-.79.708-1.43 1.483-1.43l37.086.005c.775 0 1.387.635 1.494 1.426v20.54c.53.739.956 1.696.956 2.743a4.27 4.27 0 0 1-1.488 3.233l-1.14-1.15a2.628 2.628 0 0 0 1.013-2.084c0-1.445-1.154-2.617-2.577-2.617-1.422 0-2.576 1.172-2.576 2.618 0 .856.404 1.615 1.029 2.093L86.4 68.785a4.273 4.273 0 0 1-1.49-3.251c0-1.046.412-1.884 1.032-2.748V49.675h-1.807v27.758l1.063.712v2.282H72.766v-2.282l1.38-.685v-8.578h-3.612l.003 8.55 1.274.713v2.282H59.27v-2.282l1.274-.71v-27.87h-1.913Zm4.352-26.22h18.845c.775 0 1.457.646 1.457 1.434v12.483c0 .784-.682 1.406-1.457 1.406H62.984c-.773 0-1.376-.622-1.376-1.406V24.781c0-.789.603-1.435 1.376-1.435Zm4.622 9.161c-1.323 0-2.398-1.094-2.398-2.435 0-1.348 1.075-2.439 2.398-2.439 1.325 0 2.399 1.09 2.399 2.439 0 1.341-1.074 2.435-2.4 2.435Zm7.228-2.435c0 1.341 1.076 2.435 2.404 2.435 1.325 0 2.4-1.094 2.4-2.435 0-1.348-1.075-2.439-2.4-2.439-1.328 0-2.404 1.091-2.404 2.439Zm-6 0a1.238 1.238 0 0 1-1.228 1.246c-.675 0-1.226-.56-1.226-1.246 0-.693.551-1.249 1.226-1.249.328.001.642.134.872.368.23.234.36.552.357.881Zm7.177 0a1.237 1.237 0 0 0 1.227 1.246 1.243 1.243 0 0 0 1.232-1.246 1.242 1.242 0 0 0-1.232-1.249c-.678 0-1.227.556-1.227 1.25Z" fill="#fff"/></svg>