<svg width="194" height="42" fill="none" xmlns="http://www.w3.org/2000/svg"><path d="M33.919 31.337h-4.613V20.451c0-2.035-.326-3.517-.978-4.44-.652-.926-1.756-1.387-3.307-1.387-1.85 0-3.279.664-4.287 1.997v14.716h-4.611V.762h4.613v11.742c1.418-1.194 2.996-1.793 4.735-1.793 5.637 0 8.452 3.249 8.452 9.744V31.34l-.004-.004Zm3.302-10.108c0-1.47.241-2.848.717-4.14.475-1.292 1.156-2.405 2.041-3.344.883-.937 1.956-1.678 3.222-2.222 1.265-.541 2.674-.814 4.225-.814 1.553 0 2.953.273 4.205.816 1.252.546 2.32 1.292 3.206 2.247a10.254 10.254 0 0 1 2.059 3.34c.49 1.277.734 2.65.734 4.119 0 1.466-.238 2.841-.713 4.116-.48 1.275-1.158 2.39-2.042 3.34-.882.953-1.96 1.7-3.225 2.243-1.265.543-2.675.816-4.226.816-1.578 0-2.99-.273-4.245-.816a9.601 9.601 0 0 1-3.201-2.221c-.888-.937-1.569-2.045-2.044-3.322-.476-1.277-.715-2.663-.715-4.157l.002-.001Zm4.735 0c0 2.035.485 3.653 1.452 4.85.966 1.197 2.306 1.794 4.02 1.794 1.716 0 3.056-.595 4.023-1.793.964-1.194 1.447-2.81 1.447-4.848s-.483-3.647-1.447-4.832c-.967-1.18-2.307-1.772-4.023-1.772-1.714 0-3.054.591-4.02 1.772-.967 1.183-1.45 2.794-1.45 4.832l-.002-.003ZM78.49 31.337h-4.247l-.2-1.507c-1.362 1.277-2.982 1.916-4.86 1.916-5.494 0-8.244-3.168-8.244-9.5v-11.17h4.613V21.92c0 2.039.342 3.527 1.02 4.465.681.941 1.757 1.408 3.225 1.408 1.797 0 3.158-.624 4.084-1.876V11.076h4.611v20.261h-.002ZM91.09 41.532c-1.58 0-2.966-.165-4.165-.492-1.198-.326-2.191-.768-2.98-1.324-.789-.557-1.387-1.197-1.796-1.916a4.597 4.597 0 0 1-.613-2.304c0-1.984 1.145-3.495 3.432-4.526-1.28-.71-1.921-1.645-1.921-2.814 0-1.223.71-2.174 2.124-2.853-2.147-1.498-3.225-3.683-3.225-6.567 0-1.138.192-2.207.575-3.196a7.12 7.12 0 0 1 1.63-2.55c.71-.706 1.572-1.263 2.592-1.67 1.02-.407 2.17-.614 3.451-.614 1.822 0 3.413.437 4.774 1.305 1.308-.653 2.819-.98 4.533-.98h1.02l-.364 2.977h-1.553c-.464 0-.982.042-1.553.125.953 1.33 1.428 2.853 1.428 4.565a8.565 8.565 0 0 1-.552 3.078 7.408 7.408 0 0 1-1.61 2.55c-.71.733-1.573 1.31-2.595 1.733-1.022.422-2.172.634-3.45.634-.844 0-1.635-.083-2.369-.246-.408.217-.613.49-.613.816 0 .244.09.45.268.61.173.164.468.313.876.45.409.134.959.263 1.653.384a53.02 53.02 0 0 0 2.634.387 36.68 36.68 0 0 1 2.775.532 9.966 9.966 0 0 1 2.613.976 5.96 5.96 0 0 1 1.959 1.712c.518.707.806 1.617.857 2.73 0 1.959-.857 3.527-2.569 4.71-1.718 1.183-4.141 1.774-7.266 1.774v.004Zm-.901-27.317c-1.304 0-2.305.41-2.999 1.223-.694.814-1.041 1.914-1.041 3.302 0 1.383.353 2.487 1.06 3.303.71.814 1.714 1.22 3.022 1.22 1.304 0 2.304-.414 2.996-1.242.695-.83 1.043-1.939 1.043-3.325 0-1.386-.354-2.48-1.062-3.283-.709-.8-1.714-1.202-3.021-1.202l.002.004Zm1.104 18.305-2.818-.407c-.869.268-1.577.664-2.121 1.18-.544.515-.817 1.127-.817 1.834 0 .921.48 1.664 1.429 2.221.953.557 2.287.837 4.001.837 1.714 0 3.095-.272 4.141-.816 1.05-.543 1.573-1.248 1.573-2.12 0-.79-.46-1.382-1.387-1.775-.928-.394-2.262-.71-4.003-.96l.002.006Zm56.882-.774c-2.094 0-3.892-.666-5.387-1.997l-.163 1.588h-4.286V.762h4.613v11.7c1.333-1.17 3.076-1.755 5.225-1.755 1.471 0 2.805.273 4.003.816a9.18 9.18 0 0 1 3.06 2.224c.844.94 1.496 2.054 1.96 3.34.464 1.294.694 2.673.694 4.142 0 1.466-.224 2.841-.671 4.116-.451 1.275-1.097 2.39-1.94 3.34a9.027 9.027 0 0 1-3.062 2.243c-1.201.543-2.547.816-4.046.816v.002Zm-.364-17.122c-1.58 0-2.819.584-3.716 1.753-.901 1.167-1.348 2.784-1.348 4.852 0 2.12.447 3.757 1.346 4.91.898 1.157 2.136 1.733 3.714 1.733 1.63 0 2.934-.615 3.898-1.855.966-1.238 1.447-2.834 1.447-4.79 0-1.959-.475-3.548-1.428-4.771-.951-1.223-2.259-1.834-3.919-1.834l.006.002Zm-27.061 16.713h-4.613V20.451c0-2.035-.326-3.517-.978-4.44-.655-.926-1.758-1.387-3.309-1.387-1.85 0-3.278.664-4.285 1.997v14.716h-4.615V.762h4.613v11.742c1.413-1.194 2.991-1.793 4.736-1.793 5.631 0 8.447 3.249 8.447 9.744V31.34l.004-.004Zm14.144-3.383-.408 3.792h-3.509c-.901 0-1.687-.134-2.37-.409-.68-.269-1.246-.637-1.695-1.1a4.333 4.333 0 0 1-.997-1.632 6.094 6.094 0 0 1-.329-2.035V14.826h-3.062l.41-3.75h2.654V5.053l4.613-.487v6.508h4.735v3.754H130.2v9.622c0 .845.026 1.502.082 1.978.054.474.192.822.408 1.037.217.22.556.355 1.02.409.461.057 1.103.082 1.918.082h1.265v-.002Zm25.464-6.725c0-1.47.237-2.848.715-4.14.475-1.292 1.156-2.405 2.04-3.344.887-.937 1.961-1.678 3.227-2.222 1.265-.541 2.674-.814 4.225-.814 1.553 0 2.953.273 4.205.816 1.252.546 2.32 1.292 3.202 2.247.887.948 1.572 2.063 2.065 3.34.489 1.277.734 2.65.734 4.119 0 1.466-.238 2.841-.715 4.116a9.968 9.968 0 0 1-2.04 3.34c-.882.953-1.96 1.7-3.225 2.243-1.265.543-2.673.816-4.224.816-1.578 0-2.991-.273-4.245-.816a9.645 9.645 0 0 1-3.205-2.221 9.745 9.745 0 0 1-2.038-3.322c-.48-1.277-.716-2.663-.716-4.157l-.005-.001Zm4.735 0c0 2.035.483 3.653 1.45 4.85.966 1.197 2.306 1.794 4.02 1.794 1.714 0 3.055-.595 4.021-1.793.966-1.194 1.449-2.81 1.449-4.848s-.483-3.647-1.449-4.832c-.966-1.18-2.307-1.772-4.021-1.772s-3.054.591-4.02 1.772c-.967 1.183-1.45 2.794-1.45 4.832v-.003Zm28.656 6.725-.408 3.792h-3.509c-.901 0-1.687-.134-2.37-.409-.678-.269-1.246-.637-1.693-1.1a4.333 4.333 0 0 1-.997-1.632 6.094 6.094 0 0 1-.329-2.035V14.826h-3.062l.408-3.75h2.656V5.053l4.613-.487v6.508h4.735v3.754h-4.735v9.622c0 .845.028 1.502.084 1.978.054.474.192.822.408 1.037.217.22.556.355 1.02.409.46.057 1.101.082 1.918.082h1.265l-.004-.002Zm-180.929 0-.408 3.792H8.902c-.901 0-1.687-.134-2.37-.409-.68-.269-1.246-.637-1.694-1.1a4.378 4.378 0 0 1-1.001-1.632 6.18 6.18 0 0 1-.326-2.035V14.826H.447l.41-3.75h2.654V5.053l4.613-.487v6.508h4.735v3.754H8.124v9.622c0 .845.027 1.502.082 1.978.054.474.192.822.409 1.037.216.22.556.355 1.02.409.46.057 1.102.082 1.917.082h1.265" fill="#fff"/></svg>